<svg xmlns="http://www.w3.org/2000/svg" version="1.1" xmlns:xlink="http://www.w3.org/1999/xlink" xmlns:svgjs="http://svgjs.dev/svgjs" viewBox="0 0 800 800"><defs><filter id="uuunion-blur" x="-100%" y="-100%" width="400%" height="400%" color-interpolation-filters="sRGB">
        <feGaussianBlur in="SourceGraphic" stdDeviation="7.5 0" result="blur"></feGaussianBlur>
        <feDropShadow stdDeviation="12.307692307692308" in="blur" dx="10" dy="10" flood-color="#f2ab21" flood-opacity="0.25" x="0%" y="0%" width="100%" height="100%"></feDropShadow>
      </filter><filter id="uuunion-blur2" x="-100%" y="-100%" width="400%" height="400%" color-interpolation-filters="sRGB">
        <feGaussianBlur in="SourceGraphic" stdDeviation="7.5 0" result="blur"></feGaussianBlur>
        <feDropShadow stdDeviation="12.307692307692308" in="blur" dx="-10" dy="-10" flood-color="#f2ab21" flood-opacity="0.25" x="0%" y="0%" width="100%" height="100%"></feDropShadow>
      </filter><linearGradient gradientTransform="rotate(0, 0.5, 0.5)" x1="50%" y1="0%" x2="50%" y2="100%" id="uuunion-grad"><stop stop-color="#f15922" offset="10%"></stop><stop stop-color="#f2ab21" offset="90%"></stop></linearGradient><linearGradient gradientTransform="rotate(135, 0.5, 0.5)" x1="50%" y1="0%" x2="50%" y2="100%" id="uuunion-grad2"><stop stop-color="#f15922" offset="25%"></stop><stop stop-color="#f2ab21" offset="100%"></stop></linearGradient><linearGradient gradientTransform="rotate(333, 0.5, 0.5)" x1="50%" y1="0%" x2="50%" y2="100%" id="uuunion-grad3"><stop stop-color="#f15922" offset="0%"></stop><stop stop-color="#f2ab21" offset="75%"></stop></linearGradient></defs><path d="M-78.92 -88.78Q-64.3 -87.54 -49.69 -83.66 -35.07 -78.5 -20.46 -73.86 -5.84 -71.37 8.76 -71.89 23.38 -75.24 37.99 -80.25 52.61 -85.17 67.22 -88.29 81.84 -88.5 96.45 -85.75 111.07 -80.98 125.68 -75.87 140.3 -72.2 154.91 -71.25 169.53 -73.36 184.15 -77.78 198.76 -82.98 213.38 -87.13 227.99 -88.79 242.61 -87.38 257.22 -83.39 271.84 -78.21 286.45 -73.66 301.07 -71.32 315.68 -72.01 330.3 -75.49 344.91 -80.55 359.53 -85.41 374.14 -88.38 388.76 -88.42 403.37 -85.52 417.99 -80.69 432.61 -75.61 447.22 -72.07 461.84 -71.29 476.45 -73.56 491.07 -78.07 505.68 -83.26 520.3 -87.3 534.91 -88.79 549.53 -87.21 564.14 -83.11 578.76 -77.92 593.37 -73.45 607.99 -71.27 622.6 -72.14 637.22 -75.75 651.83 -80.84 666.45 -85.64 681.07 -88.47 695.68 -88.33 710.3 -85.29 724.91 -80.39 739.53 -75.36 754.14 -71.95 768.76 -71.34 783.37 -73.76 797.99 -78.36 812.6 -83.53 827.22 -87.46 841.83 -88.79 856.45 -87.04 858.5 -72.22 861.93 -57.4 866.52 -42.58 871.98 -27.76 877.96 -12.94 884.06 1.87 889.9 16.69 895.11 31.51 899.35 46.33 902.34 61.15 903.89 75.97 903.91 90.79 902.39 105.61 899.43 120.43 895.22 135.25 890.04 150.07 884.2 164.89 878.1 179.71 872.12 194.53 866.64 209.35 862.03 224.17 858.56 238.99 856.48 253.81 855.91 268.63 856.88 283.45 859.35 298.27 863.14 313.09 868.01 327.91 873.65 342.73 879.71 357.55 885.78 372.37 891.47 387.19 896.44 402.01 900.34 416.82 902.93 431.64 904.06 446.46 903.63 461.28 901.68 476.1 898.34 490.92 893.83 505.74 888.42 520.56 882.47 535.38 876.36 550.2 870.48 565.02 865.22 579.84 860.91 594.66 857.82 609.48 856.16 624.3 856.03 639.12 857.44 653.94 860.31 668.76 864.43 683.58 869.56 698.4 875.36 713.22 881.46 728.04 887.46 742.86 892.98 757.68 897.67 772.5 901.22 787.32 903.41 802.14 904.09 816.96 903.22 831.78 900.86 846.6 897.16 861.42 881.88 856.82 866.6 860.31 851.32 870.68 836.04 884.3 820.76 896.42 805.48 902.8 790.2 901.22 774.92 892.22 759.64 878.95 744.36 866.04 729.08 858.01 713.79 857.66 698.51 865.11 683.23 877.76 667.95 891.19 652.67 900.71 637.39 902.99 622.11 897.24 606.83 885.47 591.55 871.78 576.27 860.96 560.99 856.8 545.71 860.73 530.43 871.4 515.15 885.07 499.87 896.96 484.59 902.93 469.31 900.89 454.03 891.55 438.75 878.17 423.47 865.43 408.19 857.78 392.91 857.89 377.63 865.72 362.34 878.54 347.06 891.87 331.78 901.05 316.5 902.87 301.22 896.71 285.94 884.7 270.66 871.06 255.38 860.53 240.1 856.8 224.82 861.18 209.54 872.13 194.26 885.82 178.98 897.49 163.7 903.04 148.42 900.54 133.14 890.86 117.86 877.39 102.58 864.83 87.3 857.57 72.02 858.14 56.74 866.34 41.46 879.32 26.17 892.53 10.89 901.36 -4.38 902.73 -19.66 896.16 -34.94 883.94 -50.22 870.34 -65.5 860.12 -80.78 856.83 -80.95 842.06 -81.06 827.28 -81.09 812.51 -81.06 797.73 -80.96 782.96 -80.8 768.18 -80.59 753.41 -80.34 738.63 -80.06 723.86 -79.78 709.08 -79.52 694.31 -79.28 679.53 -79.1 664.75 -78.97 649.98 -78.9 635.2 -78.91 620.43 -78.98 605.65 -79.12 590.88 -79.32 576.1 -79.56 561.33 -79.83 546.55 -80.11 531.78 -80.38 517 -80.63 502.23 -80.83 487.45 -80.98 472.67 -81.07 457.9 -81.09 443.12 -81.04 428.35 -80.92 413.57 -80.75 398.8 -80.52 384.02 -80.26 369.25 -79.98 354.47 -79.71 339.7 -79.45 324.92 -79.23 310.15 -79.05 295.37 -78.94 280.59 -78.9 265.82 -78.92 251.04 -79.02 236.27 -79.17 221.49 -79.39 206.72 -79.64 191.94 -79.91 177.17 -80.19 162.39 -80.45 147.62 -80.69 132.84 -80.88 118.07 -81.02 103.29 -81.09 88.51 -81.09 73.74 -81.01 58.96 -80.88 44.19 -80.68 29.41 -80.45 14.64 -80.18 -0.13 -79.9 -14.9 -79.63 -29.68 -79.38 -44.45 -79.17 -59.23 -79.01 -74 -78.92 -88.78" fill="url(#uuunion-grad)"></path><path d="M-78.92 -88.78Q-79.01 -74 -79.17 -59.23 -79.38 -44.45 -79.63 -29.68 -79.9 -14.9 -80.18 -0.13 -80.45 14.64 -80.68 29.41 -80.88 44.19 -81.01 58.96 -81.09 73.74 -81.09 88.51 -81.02 103.29 -80.88 118.07 -80.69 132.84 -80.45 147.62 -80.19 162.39 -79.91 177.17 -79.64 191.94 -79.39 206.72 -79.17 221.49 -79.02 236.27 -78.92 251.04 -78.9 265.82 -78.94 280.59 -79.05 295.37 -79.23 310.15 -79.45 324.92 -79.71 339.7 -79.98 354.47 -80.26 369.25 -80.52 384.02 -70.39 384.92 -60.27 388.2 -50.14 393.34 -40.02 399.53 -29.89 405.79 -19.77 411.14 -0.79 415.65 2.49 415.94 14.98 407.06 27.4 394.99 39.75 381.17 52.03 367.45 64.24 355.65 76.38 347.09 88.46 342.29 100.47 340.85 112.44 341.57 124.36 342.73 136.26 342.52 148.13 339.52 159.99 332.95 171.85 322.95 183.72 310.46 195.63 297.03 207.57 284.42 219.57 274.14 231.63 267.15 243.77 263.58 256 262.74 268.33 263.28 280.77 263.54 293.32 261.95 305.99 257.4 318.78 249.52 331.7 238.75 344.75 226.23 357.93 213.5 371.22 202.12 384.63 193.33 398.16 187.7 411.78 185.04 425.48 184.43 439.26 184.48 453.1 183.66 466.99 180.66 480.9 174.73 494.81 165.83 508.72 154.66 522.59 142.43 536.41 130.62 550.15 120.55 563.81 113.13 577.35 108.59 590.76 106.49 604.02 105.77 617.12 105.08 630.05 103.07 642.78 98.73 655.31 91.65 667.63 82.07 679.74 70.83 691.63 59.17 703.31 48.41 714.77 39.62 726.02 33.38 737.08 29.65 747.94 27.76 758.63 26.65 769.16 25.04 779.55 21.82 789.82 16.3 800 8.34 793.56 -9.37 787.7 -27.09 782.9 -44.81 779.6 -62.53 778.08 -80.25 778.47 -97.97 780.75 -115.69 784.7 -133.4 770.07 -132.1 755.43 -133.51 740.8 -137.17 726.16 -141.8 711.53 -145.81 696.9 -147.81 682.26 -147.12 667.63 -143.96 652.99 -139.44 638.36 -135.11 623.72 -132.47 609.09 -132.42 594.46 -134.99 579.82 -139.28 565.19 -143.82 550.55 -147.04 535.92 -147.83 521.28 -145.92 506.65 -141.96 492.02 -137.32 477.38 -133.61 462.75 -132.1 448.11 -133.32 433.48 -136.84 418.84 -141.45 404.21 -145.56 389.58 -147.75 374.94 -147.26 360.31 -144.27 345.67 -139.8 331.04 -135.4 316.41 -132.58 301.77 -132.33 287.14 -134.72 272.5 -138.93 257.87 -143.51 243.23 -146.87 228.6 -147.87 213.97 -146.15 199.33 -142.3 184.7 -137.66 170.06 -133.82 155.43 -132.12 140.79 -133.13 126.16 -136.51 111.53 -141.1 96.89 -145.3 82.26 -147.67 67.62 -147.39 52.99 -144.56 38.36 -140.16 23.72 -135.69 9.09 -132.71 -5.54 -132.25 -20.17 -134.46 -34.81 -138.57 -49.44 -143.18 -64.07 -146.69 -78.71 -147.89 -93.34 -146.36 -107.98 -142.64 -122.61 -138 -132.02 -122.26 -115.01 -110.27 -105.94 -105.81 -96.91 -100.98 -87.91 -95.4 -78.92 -88.78" fill="url(#uuunion-grad2)" filter="url(#uuunion-blur)"></path><path d="M810.47 413.34Q820.6 408.85 830.72 402.97 840.85 396.61 850.97 390.79 861.1 386.42 871.22 384.19 881.35 384.46 891.47 387.19 896.44 402.01 900.34 416.82 902.93 431.64 904.06 446.46 903.63 461.28 901.68 476.1 898.34 490.92 893.83 505.74 888.42 520.56 882.47 535.38 876.36 550.2 870.48 565.02 865.22 579.84 860.91 594.66 857.82 609.48 856.16 624.3 856.03 639.12 857.44 653.94 860.31 668.76 864.43 683.58 869.56 698.4 875.36 713.22 881.46 728.04 887.46 742.86 892.98 757.68 897.67 772.5 901.22 787.32 903.41 802.14 904.09 816.96 903.22 831.78 900.86 846.6 897.16 861.42 883.14 856.89 869.11 859.19 855.09 867.64 841.07 879.74 827.05 891.92 813.02 900.57 799 903.14 784.98 898.86 770.95 889.01 756.93 876.5 742.91 865.01 728.88 857.96 714.86 857.42 700.84 863.55 686.82 874.55 672.79 887.15 658.77 897.64 644.75 902.91 630.72 901.41 616.7 893.58 602.68 881.73 588.65 869.37 574.63 860.15 560.61 856.8 546.59 860.3 532.56 869.62 518.54 882.02 504.52 893.81 490.49 901.52 476.47 902.87 462.45 897.45 448.42 886.88 434.4 874.27 420.38 863.35 406.36 857.35 392.33 858.05 378.31 865.23 364.29 876.78 350.26 889.28 336.24 899.03 322.22 903.16 308.19 900.44 294.17 891.67 280.15 879.46 266.13 867.4 252.1 859.07 238.08 856.92 224.06 861.59 210.03 871.71 196.01 884.27 181.99 895.57 167.96 902.26 153.94 902.38 139.92 895.87 125.9 884.68 111.87 872.1 97.85 861.85 83.83 856.97 69.8 858.89 55.78 867.05 41.76 879.04 27.73 891.31 6.75 896.63 -0.11 882.88 -0.06 872.73 -0.03 862.58 -0.02 852.43 -0.05 842.28 0.11 827.06 0.83 822 13.52 812.97 26.16 799.28 38.74 782.78 51.24 766 63.68 751.5 76.03 741.27 88.32 736.26 100.52 736.11 112.65 739.29 124.71 743.47 136.7 746.1 148.64 745.04 160.52 739.04 172.36 728.09 184.17 713.38 195.96 697.01 207.74 681.46 219.53 668.99 231.33 661.08 243.17 658.11 255.05 659.22 267 662.58 279.02 665.84 291.12 666.66 303.32 663.36 315.64 655.25 328.07 642.83 340.62 627.64 353.31 611.9 366.13 597.92 379.1 587.56 392.2 581.8 405.44 580.47 418.82 582.32 432.33 585.35 445.95 587.29 459.69 586.16 473.53 580.72 487.45 570.84 501.44 557.44 515.49 542.3 529.57 527.6 543.66 515.4 557.75 507.12 571.81 503.22 585.83 503.07 599.77 505.16 613.62 507.42 627.36 507.78 640.97 504.66 654.42 497.32 667.71 486.07 680.81 472.19 693.71 457.55 706.4 444.2 718.87 433.87 731.12 427.51 743.13 425.11 754.91 425.67 766.46 427.52 777.78 428.66 788.88 427.3 805.12 417.81 810.47 413.34" fill="url(#uuunion-grad3)" filter="url(#uuunion-blur2)"></path></svg>